HIERARCHY
ROOT Hips
{
	OFFSET 0.000000 0.000000 0.000000
	CHANNELS 6 Xposition Yposition Zposition Zrotation Yrotation Xrotation 
	JOINT LHipJoint
	{
		OFFSET 0.000000 0.000000 0.000000
		CHANNELS 3 Zrotation Yrotation Xrotation
		JOINT LeftUpLeg
		{
			OFFSET 1.363060 -1.794630 0.839290
			CHANNELS 3 Zrotation Yrotation Xrotation
			JOINT LeftLeg
			{
				OFFSET 2.448110 -6.726130 0.000000
				CHANNELS 3 Zrotation Yrotation Xrotation
				JOINT LeftFoot
				{
					OFFSET 2.562200 -7.039590 0.000000
					CHANNELS 3 Zrotation Yrotation Xrotation
					JOINT LeftToeBase
					{
						OFFSET 0.157640 -0.433110 2.322550
						CHANNELS 3 Zrotation Yrotation Xrotation
						End Site
						{
							OFFSET 0.000000 0.000000 0.000000
						}
					}
				}
			}
		}
	}
	JOINT RHipJoint
	{
		OFFSET 0.000000 0.000000 0.000000
		CHANNELS 3 Zrotation Yrotation Xrotation
		JOINT RightUpLeg
		{
			OFFSET -1.305520 -1.794630 0.839290
			CHANNELS 3 Zrotation Yrotation Xrotation
			JOINT RightLeg
			{
				OFFSET -2.542530 -6.985550 0.000000
				CHANNELS 3 Zrotation Yrotation Xrotation
				JOINT RightFoot
				{
					OFFSET -2.568260 -7.056230 0.000000
					CHANNELS 3 Zrotation Yrotation Xrotation
					JOINT RightToeBase
					{
						OFFSET -0.164730 -0.452590 2.363150
						CHANNELS 3 Zrotation Yrotation Xrotation
						End Site
						{
							OFFSET 0.000000 0.000000 0.000000
						}
					}
				}
			}
		}
	}
	JOINT LowerBack
	{
		OFFSET 0.000000 0.000000 0.000000
		CHANNELS 3 Zrotation Yrotation Xrotation
		JOINT Spine
		{
			OFFSET 0.028270 2.035590 -0.193380
			CHANNELS 3 Zrotation Yrotation Xrotation
			JOINT Spine1
			{
				OFFSET 0.056720 2.048850 -0.042750
				CHANNELS 3 Zrotation Yrotation Xrotation
				JOINT Neck
				{
					OFFSET 0.000000 0.000000 0.000000
					CHANNELS 3 Zrotation Yrotation Xrotation
					JOINT Neck1
					{
						OFFSET -0.054170 1.746240 0.172020
						CHANNELS 3 Zrotation Yrotation Xrotation
						JOINT Head
						{
							OFFSET 0.104070 1.761360 -0.123970
							CHANNELS 3 Zrotation Yrotation Xrotation
							End Site
							{
								OFFSET 0.000000 0.000000 0.000000
							}
						}
					}
				}
				JOINT LeftShoulder
				{
					OFFSET 0.000000 0.000000 0.000000
					CHANNELS 3 Zrotation Yrotation Xrotation
					JOINT LeftArm
					{
						OFFSET 3.362410 1.200890 -0.311210
						CHANNELS 3 Zrotation Yrotation Xrotation
						JOINT LeftForeArm
						{
							OFFSET 4.983000 -0.000000 -0.000000
							CHANNELS 3 Zrotation Yrotation Xrotation
							JOINT LeftHand
							{
								OFFSET 3.483560 -0.000000 -0.000000
								CHANNELS 3 Zrotation Yrotation Xrotation
								JOINT LeftFingerBase
								{
									OFFSET 0.000000 0.000000 0.000000
									CHANNELS 3 Zrotation Yrotation Xrotation
									JOINT LeftHandIndex1
									{
										OFFSET 0.715260 -0.000000 -0.000000
										CHANNELS 3 Zrotation Yrotation Xrotation
										End Site
										{
											OFFSET 0.000000 0.000000 0.000000
										}
									}
								}
								JOINT LThumb
								{
									OFFSET 0.000000 0.000000 0.000000
									CHANNELS 3 Zrotation Yrotation Xrotation
									End Site
									{
										OFFSET 0.000000 0.000000 0.000000
									}
								}
							}
						}
					}
				}
				JOINT RightShoulder
				{
					OFFSET 0.000000 0.000000 0.000000
					CHANNELS 3 Zrotation Yrotation Xrotation
					JOINT RightArm
					{
						OFFSET -3.136600 1.374050 -0.404650
						CHANNELS 3 Zrotation Yrotation Xrotation
						JOINT RightForeArm
						{
							OFFSET -5.241900 -0.000000 -0.000000
							CHANNELS 3 Zrotation Yrotation Xrotation
							JOINT RightHand
							{
								OFFSET -3.444170 -0.000000 -0.000000
								CHANNELS 3 Zrotation Yrotation Xrotation
								JOINT RightFingerBase
								{
									OFFSET 0.000000 0.000000 0.000000
									CHANNELS 3 Zrotation Yrotation Xrotation
									JOINT RightHandIndex1
									{
										OFFSET -0.622530 -0.000000 -0.000000
										CHANNELS 3 Zrotation Yrotation Xrotation
										End Site
										{
											OFFSET 0.000000 0.000000 0.000000
										}
									}
								}
								JOINT RThumb
								{
									OFFSET 0.000000 0.000000 0.000000
									CHANNELS 3 Zrotation Yrotation Xrotation
									End Site
									{
										OFFSET 0.000000 0.000000 0.000000
									}
								}
							}
						}
					}
				}
			}
		}
	}
}
MOTION
Frames: 8
Frame Time: 0.008333
15.696762 17.749622 1.899079 -152.156671 -85.322795 177.420783 -11.777193 3.711969 0.792245 -5.388485 4.157611 -7.488564 -0.555402 0.766633 14.643333 1.053690 4.771225 21.716462 1.929100 0.000001 -61.868200 7.956928 -0.961429 3.995954 11.537209 9.073439 -44.211352 3.043982 -0.939373 22.027949 0.081942 1.439789 -1.819838 -0.279000 -0.000001 -44.773500 4.139088 -3.361773 -4.015286 0.889760 -3.710178 -4.026068 -4.470016 -3.731622 -1.564581 6.958295 -15.946558 -9.217001 -2.444565 -0.172070 -0.403093 0.000000 0.000000 0.000000 9.361201 3.985633 -0.779265 -79.557975 -2.978514 31.190268 -179.061777 -63.389516 179.955963 4.510351 -6.918703 -0.310562 -0.117809 0.892182 -0.000000 0.000000 0.000000 0.000000 0.000000 0.000000 0.000000 2.336658 -10.855422 -0.294501 70.314138 -20.591956 25.932140 -179.989016 73.821398 179.942136 -8.535237 12.473277 -0.988424 0.101418 -0.590973 0.000000 0.000000 0.000000 0.000000 0.000000 0.000000 0.000000 
15.445138 17.774092 1.865805 -154.178905 -85.322738 179.429962 -11.746243 3.711427 0.735943 -5.430256 3.614632 -6.950818 -0.458025 0.816401 15.331290 1.155201 5.577834 21.989659 2.302700 0.000000 -59.443400 7.882701 -0.941222 4.163133 11.287356 9.540322 -43.617837 3.213115 -0.610995 18.922620 0.261471 1.969800 -0.449425 -0.225700 0.000000 -46.415200 4.099666 -3.361440 -4.037616 0.882438 -3.706926 -4.041860 -4.467404 -3.729435 -1.622571 6.904540 -15.873533 -9.156446 -2.445510 -0.173245 -0.384819 0.000000 0.000000 0.000000 9.462820 3.817962 -0.786042 -79.748298 -2.644639 31.289083 -179.111792 -63.467060 179.955003 4.570661 -6.825870 -0.310508 -0.115770 0.885803 -0.000000 0.000000 0.000000 0.000000 0.000000 0.000000 0.000000 2.247769 -10.742762 -0.296024 70.536545 -21.000263 25.403192 -179.980612 73.580735 179.941187 -8.596482 12.566611 -1.002822 0.100913 -0.593858 -0.000000 0.000000 0.000000 0.000000 0.000000 0.000000 0.000000 
15.195304 17.786897 1.833016 -156.781111 -85.306408 -178.042397 -11.698122 3.701708 0.680588 -5.571798 3.006877 -6.463163 -0.363664 0.869004 16.336643 1.265597 6.626873 21.765202 2.764500 0.000000 -56.931801 7.831428 -0.908269 4.265051 11.059088 9.870383 -43.072990 3.328957 -0.344913 16.397117 0.403414 2.366179 0.789742 -0.168900 -0.000000 -47.747299 4.014332 -3.362275 -4.002670 0.863091 -3.700261 -4.046209 -4.475793 -3.722830 -1.685985 6.874062 -15.767715 -9.094271 -2.453039 -0.174826 -0.367145 0.000000 0.000000 0.000000 9.495826 3.680501 -0.781875 -79.928276 -2.305670 31.354086 -179.156945 -63.633420 179.953904 4.659875 -6.713750 -0.311546 -0.115328 0.877922 -0.000000 0.000000 0.000000 0.000000 0.000000 0.000000 0.000000 2.221164 -10.596556 -0.295846 70.753788 -21.314478 24.903363 -179.974414 73.382941 179.940539 -8.609128 12.608587 -1.007534 0.099570 -0.595868 -0.000000 0.000000 0.000000 0.000000 0.000000 0.000000 0.000000 
14.947126 17.788059 1.800907 -159.766067 -85.264332 -175.194537 -11.636465 3.683979 0.623125 -5.797175 2.373897 -6.026640 -0.270831 0.926093 17.630123 1.390111 7.886416 21.167348 3.288000 -0.000001 -54.658000 7.801265 -0.871353 4.300995 10.888241 10.062789 -42.572794 3.398476 -0.149573 14.480182 0.506692 2.633831 1.854078 -0.118400 -0.000000 -48.771100 3.894480 -3.362642 -3.908735 0.834793 -3.689424 -4.037460 -4.493275 -3.710979 -1.747761 6.865685 -15.644373 -9.036872 -2.464318 -0.176479 -0.351944 0.000000 0.000000 0.000000 9.460042 3.588468 -0.767744 -80.097486 -1.983398 31.393154 -179.194877 -63.887564 179.952760 4.769370 -6.601288 -0.313677 -0.116305 0.869393 -0.000000 0.000000 0.000000 0.000000 0.000000 0.000000 0.000000 2.245845 -10.435092 -0.294786 70.962605 -21.512571 24.453502 -179.970626 73.235667 179.940246 -8.563018 12.604238 -1.001757 0.097146 -0.597063 -0.000000 0.000000 0.000000 0.000000 0.000000 0.000000 0.000000 
14.700721 17.777454 1.769545 -162.797746 -85.184680 -172.361412 -11.569327 3.658360 0.551507 -6.068000 1.807271 -5.669135 -0.182032 0.990783 19.211470 1.527866 9.261215 20.292230 3.815500 0.000000 -52.651901 7.787676 -0.838547 4.282516 10.797567 10.155071 -42.105164 3.428168 -0.024454 13.159291 0.568884 2.760088 2.708310 -0.087199 0.000000 -49.431300 3.760779 -3.358213 -3.757017 0.801787 -3.671691 -4.016197 -4.518666 -3.691221 -1.806934 6.877540 -15.509668 -8.985562 -2.477780 -0.178068 -0.339538 0.000000 0.000000 0.000000 9.362299 3.541931 -0.744350 -80.260526 -1.681248 31.404312 -179.225089 -64.222353 179.951763 4.877772 -6.488593 -0.315607 -0.117785 0.860299 -0.000000 0.000000 0.000000 0.000000 0.000000 0.000000 0.000000 2.311154 -10.262867 -0.292446 71.164127 -21.593974 24.057604 -179.969431 73.135887 179.940359 -8.444242 12.556377 -0.983896 0.093260 -0.597523 0.000000 0.000000 0.000000 0.000000 0.000000 0.000000 0.000000 
14.456069 17.754925 1.738923 -165.563561 -85.065479 -169.849696 -11.505664 3.626187 0.456562 -6.341775 1.385006 -5.419464 -0.099894 1.066035 21.070699 1.675515 10.659251 19.224769 4.295700 0.000000 -50.817600 7.785315 -0.815125 4.225417 10.791752 10.195138 -41.657703 3.422586 0.036590 12.398303 0.587432 2.725216 3.324674 -0.088400 0.000000 -49.671800 3.632327 -3.345551 -3.555560 0.767983 -3.645157 -3.984031 -4.549718 -3.661762 -1.861169 6.906248 -15.372333 -8.942420 -2.491363 -0.179418 -0.330353 0.000000 0.000000 0.000000 9.212234 3.541160 -0.713493 -80.423402 -1.402041 31.386124 -179.248133 -64.630122 179.951090 4.964801 -6.376968 -0.315846 -0.118862 0.850732 -0.000000 0.000000 0.000000 0.000000 0.000000 0.000000 0.000000 2.403935 -10.087563 -0.288522 71.360033 -21.559918 23.720827 -179.971195 73.084986 179.940944 -8.240038 12.472607 -0.953452 0.087574 -0.597343 -0.000000 0.000000 0.000000 0.000000 0.000000 0.000000 0.000000 
14.212872 17.720319 1.708812 -168.015732 -84.917557 -167.698691 -11.450504 3.590585 0.340902 -6.602055 1.115110 -5.272846 -0.022310 1.152227 23.147110 1.834694 12.064353 18.094515 4.727900 -0.000000 -49.459000 7.791018 -0.801823 4.136572 10.858507 10.199123 -41.230030 3.385660 0.038462 12.181258 0.565537 2.548424 3.659017 -0.123000 0.000000 -49.418701 3.509335 -3.325484 -3.314502 0.733722 -3.610753 -3.942731 -4.584488 -3.623675 -1.908248 6.949785 -15.241277 -8.908691 -2.503442 -0.180403 -0.324548 0.000000 0.000000 0.000000 9.019549 3.580449 -0.677515 -80.588981 -1.142176 31.336572 -179.264910 -65.104503 179.950928 5.007020 -6.290357 -0.314300 -0.118472 0.841537 -0.000000 0.000000 0.000000 0.000000 0.000000 0.000000 0.000000 2.515512 -9.919064 -0.282736 71.551820 -21.413925 23.447072 -179.976303 73.086251 179.942036 -7.945036 12.367723 -0.911125 0.079957 -0.596735 0.000000 0.000000 0.000000 0.000000 0.000000 0.000000 0.000000 
13.970908 17.673338 1.679251 -169.809199 -84.745169 -166.235102 -11.416655 3.553038 0.193814 -6.781188 1.096058 -5.290842 0.045434 1.252602 25.462393 1.991143 13.349102 16.895452 5.049900 -0.000001 -48.068500 7.794897 -0.802460 4.044198 10.989075 10.250868 -40.823005 3.319641 -0.006352 12.446232 0.498275 2.195321 3.694036 -0.201300 -0.000000 -48.633900 3.421940 -3.292421 -3.053250 0.704604 -3.565455 -3.896034 -4.621843 -3.574124 -1.945235 7.004837 -15.123489 -8.886495 -2.512846 -0.180945 -0.322397 0.000000 0.000000 0.000000 8.790717 3.663255 -0.638118 -80.761336 -0.905248 31.259459 -179.276670 -65.642547 179.951359 4.996505 -6.201838 -0.309175 -0.116354 0.831733 -0.000000 0.000000 0.000000 0.000000 0.000000 0.000000 0.000000 2.637586 -9.761819 -0.275183 71.738199 -21.164659 23.233053 -179.985607 73.141657 179.943719 -7.549038 12.246562 -0.856615 0.070208 -0.595663 0.000000 0.000000 0.000000 0.000000 0.000000 0.000000 0.000000 
